<?xml version="1.0" standalone="no"?>
<!DOCTYPE svg PUBLIC "-//W3C//DTD SVG 20010904//EN"
 "http://www.w3.org/TR/2001/REC-SVG-20010904/DTD/svg10.dtd">
<svg version="1.0" xmlns="http://www.w3.org/2000/svg"
 width="1000.000000pt" height="1000.000000pt" viewBox="0 0 1000.000000 1000.000000"
 preserveAspectRatio="xMidYMid meet">

<g transform="translate(0.000000,1000.000000) scale(0.100000,-0.100000)"
fill="rgba(255,255,255,0)" stroke="#ffffff">
<path stroke-width="20" d="M2580 7219 c-320 -38 -557 -106 -812 -235 -222 -113 -396 -240 -578
-424 -545 -548 -762 -1343 -574 -2101 131 -532 465 -1004 930 -1314 238 -159
552 -286 832 -335 91 -16 300 -40 350 -40 l42 0 0 413 0 414 -102 6 c-352 20
-712 200 -950 473 -338 390 -436 920 -262 1406 184 511 679 885 1212 915 l102
6 0 414 0 413 -57 -1 c-32 -1 -92 -6 -133 -10z"/>
<path stroke-width="20" d="M7230 6817 l0 -414 103 -6 c548 -31 1045 -418 1222 -950 57 -173 70
-251 70 -447 0 -196 -13 -274 -70 -447 -177 -532 -674 -919 -1222 -950 l-103
-6 0 -414 0 -413 43 0 c114 0 361 38 523 80 621 160 1160 608 1440 1195 286
602 286 1308 0 1910 -171 360 -445 675 -782 900 -238 159 -552 286 -832 335
-91 16 -300 40 -349 40 l-43 0 0 -413z"/>
</g>
</svg>
