<?xml version="1.0" standalone="no"?>
<!DOCTYPE svg PUBLIC "-//W3C//DTD SVG 20010904//EN"
 "http://www.w3.org/TR/2001/REC-SVG-20010904/DTD/svg10.dtd">
<svg version="1.0" xmlns="http://www.w3.org/2000/svg"
 width="1000.000000pt" height="1000.000000pt" viewBox="0 0 1000.000000 1000.000000"
 preserveAspectRatio="xMidYMid meet">

<g transform="translate(0.000000,1000.000000) scale(0.100000,-0.100000)"
fill="rgba(0,0,0,0)" stroke="white">
<path stroke-width="20" d="M5700 7509 c-177 -19 -406 -87 -570 -169 -717 -360 -1087 -1176 -885
-1953 56 -217 165 -435 276 -552 113 -120 161 -184 211 -282 84 -162 119 -310
120 -499 0 -216 -42 -385 -148 -589 -65 -127 -129 -212 -253 -335 -171 -170
-337 -274 -553 -344 -160 -53 -286 -70 -453 -63 -236 10 -414 66 -583 184 -83
57 -76 40 16 -36 328 -274 731 -414 1147 -398 169 7 248 18 385 54 515 134
942 514 1146 1021 128 317 150 719 59 1061 -60 224 -160 423 -275 546 -141
149 -207 255 -260 412 -33 101 -60 255 -60 348 1 282 118 595 309 825 72 87
81 97 166 169 282 242 584 350 940 338 239 -9 426 -68 590 -189 124 -91 109
-65 -30 51 -373 310 -826 451 -1295 400z"/>
</g>
</svg>
